<svg xmlns="http://www.w3.org/2000/svg" width="156.255" height="153.463" viewBox="0 0 162.75 180.23"><defs><style>.cls-1,.cls-2{fill:#27386c;}.cls-2,.cls-3{fill-rule:evenodd;}.cls-3{fill:#fff;}</style></defs><title>Fichier 1</title><g id="Calque_2" data-name="Calque 2"><g id="Calque_1-2" data-name="Calque 1"><path class="cls-1" d="M107.93,175.85h-3.12l1.59-4.56Zm3.94,4.28-4.58-12.54h-1.92l-4.56,12.54h2.56l.75-2.22h4.46l.74,2.22ZM99.6,176v-8.42H97.15v8.31a1.87,1.87,0,0,1-2,2.15,2,2,0,0,1-1.6-.7L92,179A4.51,4.51,0,0,0,99.6,176m-11.81-.16H84.68l1.58-4.56Zm3.95,4.28-4.58-12.54H85.24l-4.56,12.54h2.55l.76-2.22h4.45l.74,2.22Zm-14.68-8.7a1.62,1.62,0,0,1-1.77,1.65H73v-3.31h2.32a1.63,1.63,0,0,1,1.77,1.66m3,8.7-2.8-5.41a3.37,3.37,0,0,0,2.29-3.29,3.79,3.79,0,0,0-4.07-3.84H70.53v12.54H73v-5h1.77l2.45,5ZM63.53,176.5H62.19A3.07,3.07,0,0,1,57,178.16c-.8-.81-.89-1.68-.89-4.3s.09-3.49.89-4.3a3,3,0,0,1,5.14,1.66h1.37a4.22,4.22,0,0,0-4.35-3.74,4.51,4.51,0,0,0-3.21,1.3c-1.17,1.18-1.17,2.42-1.17,5.08s0,3.89,1.17,5.07a4.47,4.47,0,0,0,3.21,1.3,4.22,4.22,0,0,0,4.35-3.73m-11,3.63v-1.2H46V174.4h5.5v-1.19H46v-4.43h6.45v-1.19H44.7v12.54Zm-9.74-12.54H41.34l-3.26,10.14-3.26-10.14H33.41l4.12,12.54h1.09Zm-11.9,8.54H26.17l2.36-6.62Zm2.82,4-4.59-12.54H28l-4.62,12.54h1.43l1-2.84h5.48l1,2.84Z"/><path class="cls-1" d="M162.75,148.23V147h-8.59v1.2h3.63v11.35h1.33V148.23Zm-11.1,7.35H147l2.36-6.62Zm2.82,4L149.88,147h-1.13l-4.62,12.55h1.43l1-2.84H152l1,2.84ZM142.1,147h-1.33v12.54h1.33Zm-5.7,3.51a2.21,2.21,0,0,1-2.5,2.29h-3.35v-4.6h3.35a2.22,2.22,0,0,1,2.5,2.31m1.58,9-3-5.69a3.26,3.26,0,0,0,2.72-3.37A3.38,3.38,0,0,0,134,147h-4.81v12.55h1.34V154h3l2.86,5.57Zm-13.61-4h-4.69L122,149Zm2.81,4L122.59,147h-1.13l-4.62,12.55h1.43l1-2.84h5.48l1,2.84Zm-12.36,0V147h-1.34v10l-6.66-10h-1.27v12.55h1.34V149.52l6.66,10.06Zm-12,0v-1.2H96.32v-4.53h5.49v-1.2H96.32v-4.42h6.45V147H95v12.55ZM92.64,148.23V147H84v1.2h3.63v11.35H89V148.23ZM81,150.54a2.21,2.21,0,0,1-2.5,2.29H75.11v-4.6h3.35a2.22,2.22,0,0,1,2.5,2.31m1.58,9-3-5.69a3.26,3.26,0,0,0,2.73-3.37A3.4,3.4,0,0,0,78.58,147H73.77v12.55h1.34V154h3L81,159.58Zm-13.61-4H64.24L66.6,149Zm2.82,4L67.15,147H66L61.4,159.58h1.43l1-2.84h5.48l1,2.84ZM60,150.72a2.38,2.38,0,0,1-2.66,2.5h-3.2v-5h3.2A2.37,2.37,0,0,1,60,150.72m1.34,0A3.57,3.57,0,0,0,57.46,147H52.79v12.55h1.34v-5.17h3.33a3.57,3.57,0,0,0,3.87-3.69m-16.56,8.86V147H43.43v10l-6.66-10H35.51v12.55h1.33V149.52l6.66,10.06Zm-12.05,0v-1.2H26.27v-4.53h5.5v-1.2h-5.5v-4.42h6.45V147H24.94v12.55Z"/><path class="cls-1" d="M141,139v-2.18h-5.81v-3.05h4.95v-2.18h-4.95v-3H141v-2.18h-8.26V139Zm-11.19,0V126.48h-2.41l-3.26,6.78-3.28-6.78h-2.41V139h2.45v-7.31l2.41,4.76H125l2.4-4.76V139Zm-14.78-13.76-2.32-3h-1.83l-2.33,3h1.78l1.46-1.6,1.46,1.6Zm1,13.76v-2.18h-5.82v-3.05h5v-2.18h-5v-3h5.82v-2.18h-8.26V139Zm-10.26,0v-2.18h-5.69V126.48H97.69V139ZM95,134.73v-8.25H92.53v8.16a2.18,2.18,0,1,1-4.35,0v-8.16H85.73v8.25a4.62,4.62,0,0,0,9.23,0m-14-2c0,2.42-.14,3-.61,3.53a2.05,2.05,0,0,1-1.57.67,2.12,2.12,0,0,1-1.59-.67c-.47-.53-.6-1.11-.6-3.53s.13-3,.6-3.52a2.08,2.08,0,0,1,1.59-.67,2,2,0,0,1,1.57.67c.47.53.61,1.11.61,3.52m2.45,0c0-2.17,0-3.74-1.25-5a4.52,4.52,0,0,0-3.38-1.37,4.57,4.57,0,0,0-3.4,1.37c-1.27,1.26-1.23,2.83-1.23,5s0,3.74,1.23,5a4.85,4.85,0,0,0,6.78,0c1.27-1.26,1.25-2.83,1.25-5m-11.13,1.13v-1.83H67.55v2h2.31v.48a2.46,2.46,0,0,1-.56,1.67,2.28,2.28,0,0,1-1.75.71,1.92,1.92,0,0,1-1.57-.66c-.49-.58-.6-1.07-.6-3.54s.14-2.94.6-3.52a2,2,0,0,1,1.57-.67,2.14,2.14,0,0,1,2.26,1.83h2.46a4.48,4.48,0,0,0-4.72-4,4.56,4.56,0,0,0-3.38,1.37,3.5,3.5,0,0,0-1,1.88,23.28,23.28,0,0,0,0,6.24,3.54,3.54,0,0,0,1,1.88,4.57,4.57,0,0,0,3.38,1.38,4.69,4.69,0,0,0,3.54-1.43,5,5,0,0,0,1.2-3.82M60.43,139V126.48H58v7.68l-5-7.68H50.83V139h2.45v-7.7l5,7.7Zm-15.09-4.28H42.22l1.58-4.56ZM49.28,139,44.7,126.48H42.78L38.22,139h2.55l.76-2.22H46l.74,2.22Zm-11-10.35v-2.19H35.93v4Zm-7.08,4c0,1.9-.07,2.8-.53,3.37a2.17,2.17,0,0,1-1.83.77H27v-8.18h1.85a2.18,2.18,0,0,1,1.83.78c.46.56.53,1.36.53,3.26m2.45,0c0-1.89.14-3.61-1.27-5a4.55,4.55,0,0,0-3.31-1.2H24.59V139h4.52a4.55,4.55,0,0,0,3.31-1.2c1.41-1.4,1.27-3.24,1.27-5.12"/><path class="cls-1" d="M100.48,118.47v-2.18H94.79V105.93H92.34v12.54Zm-13.64-4.28H83.72l1.59-4.56Zm4,4.28-4.58-12.54H84.29l-4.57,12.54h2.56l.76-2.22h4.45l.74,2.22ZM80.2,105.93H77.64l-2.51,8.17-2.52-8.17H70.07l4.14,12.54H76Zm-11.65,0H66.11v12.54h2.44Zm-4.44,2.18v-2.18h-9v2.18h3.28v10.36h2.45V108.11Zm-10.37,6.66a3.52,3.52,0,0,0-1-2.66,4.18,4.18,0,0,0-2.4-1l-1.48-.21a2.15,2.15,0,0,1-1.16-.49,1.25,1.25,0,0,1-.37-.9c0-.87.63-1.59,1.94-1.59a3.51,3.51,0,0,1,2.57.86l1.55-1.53a5.35,5.35,0,0,0-4.05-1.46c-2.71,0-4.37,1.57-4.37,3.81a3.31,3.31,0,0,0,.9,2.46,4.21,4.21,0,0,0,2.43,1l1.52.21a1.89,1.89,0,0,1,1.11.44,1.42,1.42,0,0,1,.38,1.06c0,1-.77,1.55-2.22,1.55a4.09,4.09,0,0,1-3-1.06l-1.58,1.59a5.87,5.87,0,0,0,4.58,1.65c2.62,0,4.65-1.37,4.65-3.8m-10.5,3.7v-2.18H37.43v-3.05h4.94v-2.19H37.43v-2.94h5.81v-2.18H35v12.54Zm-10.4-10.36v-2.18H24.59v12.54H27v-5.09H32V111.2H27v-3.09Z"/><path class="cls-2" d="M55.88,64.5s-.2,8.2-.22,13.8a47,47,0,0,0,.16,5.1c1.28-.72,3.14-1.76,5.53-.18a3.32,3.32,0,0,1,1,1.34,8.36,8.36,0,0,1,.6,4.81c-.07.18-3.74,2.17-8.71-1.55a7.2,7.2,0,0,1-.1-3.54c0-1.66.25-18,.27-18.47A17.67,17.67,0,0,1,45.87,68c0,1-.1,7.56-.09,12.91,0,3.82.14,7,.14,7l.65-.68a3.47,3.47,0,0,1,3.65-.93c3,.83,3.69,4.12,3.42,6.16-.09.61-1.08.83-2.14.89a13.24,13.24,0,0,1-6.1-1.25,2.74,2.74,0,0,1-1-.62c0-1.77-.08-23.5-.08-23.5s-6.86-.2-9.47-1.08c0,1.24-.17,4.07-.15,6.62s.2,4.81.2,5.16a4.44,4.44,0,0,1,4-1.3c2.41.25,3.16,3.74,3.16,5.53s-1.47,1.28-1.83,1.3A11.63,11.63,0,0,1,37,83.93c-1.75-.42-3.55-1.81-3.56-2.26-.05-1.74-.13-15.08-.13-15.08S27.94,65.18,26,63.85c0,1-.15,5.66,0,10.12s.44,8.49.46,8.93a5.41,5.41,0,0,1,5-.66,3.37,3.37,0,0,1,2.15,2.26A11,11,0,0,1,34.24,87c.06.8.35,2.25-.91,2.29a14.22,14.22,0,0,1-6.11-1.14c-2.38-1.08-2.31-1.45-2.33-1.73s-.66-21.61-.63-23.3a11.13,11.13,0,0,1-.58-2.23c-.29-1.66-.52-4-.72-6.15A33.84,33.84,0,0,1,22.65,50c-.15-1-.48-2.32-.73-3.75-.39-2.18-.65-4.64-1-6.75A47.7,47.7,0,0,0,19.8,34c-1.1-4.15-3.6-9.92-10.61-17C5.6,13.36,3.61,12.33,1.84,9.52-.93,5.11.05,2.6.81,1.38,1.36.51,2.65-.25,4.92.08c2.43.34,6,1.94,10.39,6.23,2,2,3.67,5.33,5.12,9.36a85.92,85.92,0,0,1,2.8,9.56c.52,2.32.87,4.66,1.28,6.9,1.53,8.49,2.25,15.63,2.25,15.63A4.26,4.26,0,0,1,27.83,47,9.58,9.58,0,0,1,32,46a39.21,39.21,0,0,1,7.35.73c-.07-4.5-.82-11,5.77-18.19.78-.85,1.63-1.69,2.53-2.64.05-3.65.25-10,1.84-13.31.49-1,.84-3.34,2.1-3.53s3,.86,4.79,2.61A27.9,27.9,0,0,1,59.69,15a18.48,18.48,0,0,1,1.38,1.87c.54.91,1,2,1.54,3a38.81,38.81,0,0,1,4.8-.38,40.1,40.1,0,0,1,4.11,0,30.35,30.35,0,0,0,.85-3.27,29.86,29.86,0,0,1,1.55-4.95c.75-1.47,2-3.27,4.92-.6s6.2,9.73,7,12.06a32.78,32.78,0,0,1,7.68,7,25.61,25.61,0,0,1,2.2,3.59A21.1,21.1,0,0,1,98.21,40a19.63,19.63,0,0,1,0,5.35,20,20,0,0,1-5.82,11.93,24.35,24.35,0,0,1-4.06,3,34.27,34.27,0,0,1-7.45,3.62c-.79.25-1.36.49-1.77.57,1.5,1.59,4.06,3.15,4.1,4.77s-2,4.32-5.06,1.85c-1.66-1.36-2.71-5.62-2.71-5.62s-11.54,1.09-19.23-2A5.81,5.81,0,0,1,55.88,64.5Z"/><path class="cls-3" d="M66.33,20.67a49.42,49.42,0,0,1,9.79.6A28.2,28.2,0,0,1,84,23.39a20.66,20.66,0,0,1,4.1,2.75,38,38,0,0,1,3.79,3.69c1.8,1.79,5.66,8.34,5.07,14.56,0,.32,0,.75-.11,1.06A16,16,0,0,1,95,51.09c-2,3.69-5.37,7.3-11.32,9.93a37.66,37.66,0,0,1-8.23,2.7,30,30,0,0,1-6.89.1,39.64,39.64,0,0,1-4.4-.22,38,38,0,0,1-13.24-4.42c-4.38-2.55-7.22-5.67-8.08-7.64a18.62,18.62,0,0,1-1.63-12.61,28.83,28.83,0,0,1,.9-3.1,22.52,22.52,0,0,1,4.62-7,22.47,22.47,0,0,1,2.59-2.57,23.83,23.83,0,0,1,7.29-3.65A34.65,34.65,0,0,1,66.33,20.67Z"/><path class="cls-2" d="M63.74,47.27a57.39,57.39,0,0,0-3.45-11.85,13.73,13.73,0,0,1-1.15-2.59c-.33-.76.3-1.56,1.06-.65a36.69,36.69,0,0,1,5.31,14.41c.22,1.45-.88,2.26-1.47,1.73A1.55,1.55,0,0,1,63.74,47.27Z"/><path class="cls-2" d="M83.17,30.85c-.71-1.13,0-2.24,1-.86a29.84,29.84,0,0,1,3.27,7.57A35.17,35.17,0,0,1,89,44.22c0,1.18-1.3,1.59-1.61.15-.16-.76-.69-3.72-1.53-6.72A29.61,29.61,0,0,0,83.17,30.85Z"/></g></g></svg>
