<svg xmlns="http://www.w3.org/2000/svg" width="17.966" height="17.966"><path d="M8.983 1.6a27.545 27.545 0 013.593.1 4.63 4.63 0 011.7.3 3.505 3.505 0 011.7 1.7 4.63 4.63 0 01.3 1.7c0 .9.1 1.2.1 3.593a27.544 27.544 0 01-.1 3.593 4.63 4.63 0 01-.3 1.7 3.505 3.505 0 01-1.7 1.7 4.63 4.63 0 01-1.7.3c-.9 0-1.2.1-3.593.1a27.544 27.544 0 01-3.593-.1 4.63 4.63 0 01-1.7-.3 3.505 3.505 0 01-1.7-1.7 4.63 4.63 0 01-.3-1.7c0-.9-.1-1.2-.1-3.593A27.544 27.544 0 011.7 5.39a4.63 4.63 0 01.3-1.7 3.585 3.585 0 01.7-1 1.688 1.688 0 011-.7 4.63 4.63 0 011.7-.3 27.544 27.544 0 013.593-.1m0-1.6A29.492 29.492 0 005.29.1a6.162 6.162 0 00-2.2.4 3.907 3.907 0 00-1.6 1 3.907 3.907 0 00-1 1.6 4.548 4.548 0 00-.4 2.2A29.492 29.492 0 000 8.983a29.492 29.492 0 00.1 3.693 6.162 6.162 0 00.4 2.2 3.907 3.907 0 001 1.6 3.907 3.907 0 001.6 1 6.162 6.162 0 002.2.4 29.492 29.492 0 003.693.1 29.492 29.492 0 003.693-.1 6.162 6.162 0 002.2-.4 4.188 4.188 0 002.6-2.6 6.162 6.162 0 00.4-2.2c0-1 .1-1.3.1-3.693a29.492 29.492 0 00-.1-3.693 6.162 6.162 0 00-.4-2.2 3.907 3.907 0 00-1-1.6 3.907 3.907 0 00-1.6-1 6.162 6.162 0 00-2.2-.4A29.492 29.492 0 008.983 0m0 4.392a4.518 4.518 0 00-4.591 4.591 4.591 4.591 0 104.591-4.591m0 7.586a2.941 2.941 0 01-2.994-2.995 2.941 2.941 0 012.994-2.994 2.941 2.941 0 012.994 2.994 2.941 2.941 0 01-2.994 2.994m4.791-8.883a1.1 1.1 0 101.1 1.1 1.108 1.108 0 00-1.1-1.1" fill="#27386c" fill-rule="evenodd"/></svg>