<svg xmlns="http://www.w3.org/2000/svg" width="17.966" height="14.573"><path d="M5.689 14.573A10.387 10.387 0 0016.17 4.092v-.5a8.113 8.113 0 001.8-1.9 8.286 8.286 0 01-2.1.6 3.883 3.883 0 001.6-2 9.155 9.155 0 01-2.3.9A3.565 3.565 0 0012.477 0a3.75 3.75 0 00-3.693 3.693 1.946 1.946 0 00.1.8A10.32 10.32 0 011.3.6a3.822 3.822 0 00-.5 1.9 3.966 3.966 0 001.6 3.09 3.365 3.365 0 01-1.7-.5 3.648 3.648 0 002.994 3.593 3.077 3.077 0 01-1 .1 1.7 1.7 0 01-.7-.1 3.781 3.781 0 003.493 2.6 7.536 7.536 0 01-4.591 1.6 2.763 2.763 0 01-.9-.1 9.421 9.421 0 005.689 1.8" fill="#27386c" fill-rule="evenodd"/></svg>